<svg width="36" height="36" viewBox="0 0 36 36" fill="none" xmlns="http://www.w3.org/2000/svg">
<path d="M36 18C36 27.9413 27.9413 36 18 36C8.05875 36 0 27.9413 0 18C0 8.05875 8.05875 0 18 0C27.9413 0 36 8.05875 36 18Z" fill="#9B3421"/>
<path d="M18.7899 35.9816C28.3645 35.5682 36 27.6762 36 18C36 17.93 35.9981 17.8602 35.9973 17.7902L23.5028 5.29541L10.1434 19.259L17.5661 26.6817L14.1436 31.3352L18.7899 35.9816Z" fill="#9B3421"/>
<path d="M23.5027 5.29537V9.3713C23.5027 9.3713 18.8231 8.69207 18.8231 11.7111V14.7302H23.0498L22.5216 19.3342H18.8231V31.3352H14.1435V19.3342L10.1431 19.2587V14.7302H14.0679V11.2582C14.0679 11.2582 13.8089 6.09325 18.8986 5.14458C21.0121 4.75045 23.5027 5.29537 23.5027 5.29537V5.29537Z" fill="white"/>
<path d="M23.5027 9.3713V5.29537C23.5027 5.29537 21.0121 4.75045 18.8987 5.14458C18.5685 5.20611 18.2614 5.28576 17.975 5.37997V31.3352H18.8231V19.3342H22.5214L23.0498 14.7302H18.8231C18.8231 14.7302 18.8231 14.7302 18.8231 11.7111C18.8231 8.69207 23.5027 9.3713 23.5027 9.3713Z" fill="#DCE1EB"/>
</svg>
