<svg width="36" height="36" viewBox="0 0 36 36" fill="none" xmlns="http://www.w3.org/2000/svg">
<path d="M18 36C27.9411 36 36 27.9411 36 18C36 8.05887 27.9411 0 18 0C8.05887 0 0 8.05887 0 18C0 27.9411 8.05887 36 18 36Z" fill="#9B3421"/>
<path d="M26.3468 9.34613C24.1961 9.61838 21.9537 9.60889 19.697 9.39401C16.5454 9.15157 11.9394 7.69702 10.2424 10.6061C7.51625 15.2633 8.86083 21.2258 9.49611 26.5022L18.9698 35.9739C28.1377 35.4871 35.4852 28.1406 35.9735 18.973L26.3468 9.34613Z" fill="#9B3421"/>
<path d="M22.1644 7.6969H13.8355C10.4507 7.6969 7.69696 10.4506 7.69696 13.8355V22.1643C7.69696 25.549 10.4507 28.303 13.8356 28.303H22.1645C25.5492 28.303 28.3031 25.5492 28.3031 22.1643V13.8355C28.303 10.4506 25.5492 7.6969 22.1644 7.6969ZM26.2301 22.1644C26.2301 24.4098 24.4098 26.23 22.1645 26.23H13.8356C11.5902 26.23 9.76998 24.4098 9.76998 22.1644V13.8355C9.76998 11.5902 11.5902 9.76985 13.8356 9.76985H22.1645C24.4098 9.76985 26.2301 11.5902 26.2301 13.8355V22.1644Z" fill="white"/>
<path d="M18 12.6704C15.0613 12.6704 12.6704 15.0613 12.6704 18C12.6704 20.9384 15.0613 23.3293 18 23.3293C20.9386 23.3293 23.3293 20.9386 23.3293 18C23.3293 15.0613 20.9386 12.6704 18 12.6704ZM18 21.2563C16.2014 21.2563 14.7434 19.7986 14.7434 18C14.7434 16.2014 16.2014 14.7434 18 14.7434C19.7985 14.7434 21.2563 16.2013 21.2563 18C21.2563 19.7985 19.7985 21.2563 18 21.2563Z" fill="white"/>
<path d="M24.6166 12.7107C24.6166 13.4159 24.0448 13.9878 23.3395 13.9878C22.6343 13.9878 22.0624 13.4159 22.0624 12.7107C22.0624 12.0054 22.6343 11.4336 23.3395 11.4336C24.045 11.4336 24.6166 12.0052 24.6166 12.7107Z" fill="#D1D1D1"/>
<path d="M22.1645 7.6969H17.9597V9.76985H22.1645C24.4098 9.76985 26.2301 11.5902 26.2301 13.8355V22.1644C26.2301 24.4098 24.4098 26.23 22.1645 26.23H17.9597V28.303H22.1645C25.5492 28.303 28.303 25.5492 28.303 22.1643V13.8355C28.303 10.4506 25.5493 7.6969 22.1645 7.6969Z" fill="#D1D1D1"/>
<path d="M18 12.6704C17.9864 12.6704 17.9732 12.6714 17.9597 12.6714V14.7443C17.9731 14.7442 17.9864 14.7434 18 14.7434C19.7985 14.7434 21.2564 16.2013 21.2564 18C21.2564 19.7985 19.7986 21.2563 18 21.2563C17.9864 21.2563 17.9731 21.2555 17.9597 21.2554V23.3283C17.9732 23.3284 17.9864 23.3293 18 23.3293C20.9387 23.3293 23.3294 20.9385 23.3294 18C23.3294 15.0613 20.9387 12.6704 18 12.6704Z" fill="#D1D1D1"/>
</svg>
